<?xml version="1.0" standalone="no"?>
<!DOCTYPE svg PUBLIC "-//W3C//DTD SVG 20010904//EN"
 "http://www.w3.org/TR/2001/REC-SVG-20010904/DTD/svg10.dtd">
<svg version="1.0" xmlns="http://www.w3.org/2000/svg"
 width="7978.000000pt" height="1500.000000pt" viewBox="0 0 7978.000000 1500.000000"
 preserveAspectRatio="xMidYMid meet">

<g transform="translate(0.000000,1500.000000) scale(0.100000,-0.100000)"
fill="#000000" stroke="none">
<path d="M5260 14923 c-243 -593 -711 -1508 -1143 -2232 -409 -687 -717 -1141
-1592 -2346 -733 -1009 -1053 -1474 -1367 -1985 -225 -366 -495 -866 -605
-1118 -14 -33 -14 -34 9 -26 48 15 351 161 543 262 952 500 1940 1189 2845
1981 693 608 1686 1603 2222 2227 202 236 498 618 498 644 0 5 -74 132 -163
282 -302 503 -547 953 -803 1473 -154 314 -316 665 -380 822 -16 40 -32 73
-35 73 -3 0 -16 -26 -29 -57z"/>
<path d="M7657 10821 c-9 -16 -84 -119 -165 -228 -725 -971 -1579 -1829 -2447
-2459 -1164 -844 -2570 -1474 -3945 -1768 -290 -62 -626 -115 -833 -132 l-87
-7 -15 -51 c-26 -85 -83 -354 -105 -486 -33 -205 -70 -590 -56 -590 3 0 31 12
63 26 407 182 1100 392 1803 548 452 100 852 173 1585 291 259 41 655 105 880
141 930 149 1445 256 1913 399 551 168 971 366 1452 686 589 391 1123 856
1488 1292 45 53 82 101 82 106 0 13 -225 355 -405 616 -192 279 -320 457 -670
940 -148 204 -323 445 -389 537 -67 92 -123 168 -126 168 -3 0 -13 -13 -23
-29z"/>
<path d="M50897 10104 c-4 -4 -7 -650 -7 -1436 l0 -1429 888 4 c866 3 889 4
977 24 435 104 656 330 673 689 19 414 -243 675 -748 747 -31 4 -24 7 115 40
164 40 261 92 365 197 58 57 95 104 113 143 118 246 76 558 -100 748 -117 126
-263 201 -493 251 -91 21 -126 21 -935 25 -462 2 -844 1 -848 -3z m1674 -332
c216 -59 339 -183 370 -372 15 -88 1 -197 -36 -277 -53 -116 -182 -215 -330
-253 -74 -19 -111 -20 -682 -20 l-603 0 0 476 0 476 603 -4 c575 -4 605 -5
678 -26z m74 -1255 c261 -76 385 -226 385 -467 0 -203 -84 -344 -254 -424
-150 -71 -130 -70 -843 -74 l-643 -3 0 496 0 496 648 -3 c579 -3 653 -6 707
-21z"/>
<path d="M16512 6283 l3 -3818 2095 -3 c2186 -3 2451 1 2785 39 1210 138 1996
649 2236 1454 45 150 70 311 76 490 27 785 -358 1357 -1125 1669 -290 118
-677 211 -1027 246 -132 13 -169 22 -115 27 19 2 105 15 190 29 483 78 886
227 1180 437 179 128 370 348 463 532 187 374 217 891 75 1334 -161 507 -570
904 -1169 1134 -340 132 -724 208 -1179 237 -104 6 -967 10 -2328 10 l-2162 0
2 -3817z m4299 2557 c456 -46 787 -237 930 -535 67 -140 82 -215 82 -410 0
-200 -15 -272 -87 -413 -139 -268 -397 -436 -790 -514 -111 -23 -112 -23
-1463 -26 l-1353 -3 0 956 0 955 1289 0 c824 0 1326 -4 1392 -10z m201 -3115
c455 -53 768 -211 939 -473 95 -145 139 -311 139 -522 0 -524 -299 -844 -903
-965 -245 -49 -226 -48 -1679 -52 l-1378 -4 0 1016 0 1015 1378 0 c1154 0
1398 -2 1504 -15z"/>
<path d="M25200 6280 l0 -3820 5335 0 5335 0 0 3820 0 3820 -790 0 -790 0 0
-3155 0 -3155 -1480 0 -1480 0 0 3155 0 3155 -792 -2 -793 -3 -3 -3152 -2
-3153 -1480 0 -1480 0 0 3155 0 3155 -790 0 -790 0 0 -3820z"/>
<path d="M37815 10088 c-3 -7 -4 -1725 -3 -3818 l3 -3805 808 -3 807 -2 0
1615 0 1615 2040 0 2040 0 2 -1612 3 -1613 808 -3 807 -2 0 3820 0 3820 -807
-2 -808 -3 -3 -1542 -2 -1543 -2040 0 -2040 0 0 1545 0 1545 -805 0 c-635 0
-807 -3 -810 -12z"/>
<path d="M58263 9430 c-597 -51 -952 -403 -1003 -995 -27 -315 44 -617 195
-830 51 -72 167 -184 238 -229 198 -126 426 -186 709 -186 354 0 618 90 820
279 125 118 212 269 252 441 l14 59 -31 5 c-78 13 -330 27 -336 19 -4 -4 -13
-28 -20 -53 -60 -207 -234 -368 -467 -431 -106 -29 -334 -32 -439 -5 -178 45
-334 153 -425 293 -100 152 -135 291 -134 523 1 188 22 287 91 430 38 80 60
109 132 181 136 137 274 194 496 206 358 18 644 -156 730 -445 l14 -47 178 13
c98 8 180 16 182 18 7 6 -27 131 -53 194 -42 105 -88 172 -186 270 -113 113
-201 166 -364 221 -179 60 -397 86 -593 69z"/>
<path d="M64871 9429 c-361 -27 -622 -154 -754 -365 -45 -73 -108 -290 -89
-309 3 -3 83 -5 178 -5 l173 0 7 38 c29 165 182 299 399 349 122 28 382 25
488 -5 110 -31 192 -76 251 -135 92 -93 125 -197 126 -394 0 -73 -2 -83 -17
-83 -36 0 -772 -60 -863 -71 -513 -58 -797 -230 -860 -520 -18 -82 -8 -258 19
-334 75 -210 260 -341 551 -391 117 -20 415 -14 523 10 293 67 518 215 646
426 l21 35 0 -217 0 -218 181 0 180 0 -4 763 c-3 750 -4 763 -26 847 -79 302
-286 481 -639 555 -69 14 -309 37 -362 34 -14 -1 -72 -5 -129 -10z m775 -1269
c-8 -136 -24 -208 -65 -295 -86 -183 -254 -313 -480 -372 -129 -34 -357 -43
-480 -19 -140 26 -245 86 -297 168 -35 56 -57 149 -49 211 25 200 219 321 573
358 122 13 732 66 776 68 l29 1 -7 -120z"/>
<path d="M53987 9383 c-4 -3 -7 -487 -7 -1075 l0 -1068 611 0 c676 0 744 5
914 61 121 40 187 80 266 159 117 116 162 238 163 440 1 143 -11 202 -62 310
-90 192 -300 310 -617 349 -52 6 -262 11 -492 11 l-403 0 0 410 0 410 -183 0
c-101 0 -187 -3 -190 -7z m1268 -1118 c137 -34 234 -104 276 -198 21 -45 24
-68 24 -162 0 -91 -4 -118 -22 -157 -29 -63 -96 -129 -166 -161 -113 -54 -158
-59 -599 -64 l-408 -5 0 387 0 387 413 -5 c350 -4 422 -7 482 -22z"/>
<path d="M56327 9383 c-4 -3 -7 -487 -7 -1075 l0 -1068 190 0 190 0 0 1075 0
1075 -183 0 c-101 0 -187 -3 -190 -7z"/>
<path d="M60000 8315 l0 -1075 1675 0 1675 0 0 1075 0 1075 -182 -2 -183 -3
-3 -917 -2 -918 -560 0 -560 0 0 920 0 920 -185 0 -185 0 0 -920 0 -920 -560
0 -560 0 0 920 0 920 -185 0 -185 0 0 -1075z"/>
<path d="M67345 9383 c-290 -22 -483 -92 -611 -220 -169 -169 -212 -461 -104
-700 33 -72 125 -175 202 -224 65 -42 186 -88 283 -108 44 -9 81 -20 83 -24 2
-4 -155 -199 -347 -432 -193 -233 -351 -427 -351 -430 0 -3 102 -4 227 -3
l227 3 324 428 324 427 309 0 309 0 0 -430 0 -430 190 0 190 0 0 1075 0 1075
-607 -2 c-335 -1 -626 -3 -648 -5z m875 -659 l0 -375 -447 3 c-424 4 -452 5
-527 26 -137 38 -210 91 -258 189 -30 61 -33 75 -32 157 0 76 4 100 26 147 32
70 82 121 156 158 124 63 177 68 675 70 l407 1 0 -376z"/>
<path d="M9994 7028 c-105 -125 -402 -420 -544 -542 -436 -374 -882 -647
-1331 -817 -296 -111 -958 -275 -1513 -374 -461 -82 -1034 -148 -2451 -285
-1478 -143 -2307 -276 -3170 -506 -315 -84 -918 -274 -930 -293 -6 -10 64
-353 95 -468 12 -46 26 -83 30 -83 4 0 178 -7 386 -15 3379 -131 6408 -165
7574 -85 723 50 1574 205 2010 367 110 41 257 108 315 145 l41 26 22 140 c43
277 55 454 49 772 -5 296 -17 430 -58 675 -67 402 -199 849 -376 1275 -36 85
-66 156 -67 158 -2 1 -38 -39 -82 -90z"/>
<path d="M73097 5473 c-4 -3 -7 -187 -7 -408 l0 -402 -147 -6 c-254 -11 -437
-53 -618 -142 -369 -182 -555 -511 -555 -980 0 -470 187 -800 555 -980 183
-90 364 -132 618 -142 l147 -6 0 -384 0 -383 185 0 185 0 0 383 0 384 148 6
c384 16 662 116 870 311 191 181 292 424 309 746 21 402 -124 747 -397 950
-204 152 -512 239 -842 240 l-88 0 0 410 0 410 -178 0 c-98 0 -182 -3 -185 -7z
m-7 -1939 l0 -827 -137 6 c-447 18 -730 244 -799 639 -21 122 -14 329 15 442
93 354 392 562 814 565 l107 1 0 -826z m739 797 c282 -71 477 -253 551 -516
43 -152 45 -388 5 -548 -38 -147 -135 -298 -248 -383 -144 -109 -309 -162
-534 -171 l-143 -6 0 828 0 828 143 -6 c94 -4 171 -13 226 -26z"/>
<path d="M58146 4645 c-303 -43 -565 -181 -724 -382 -165 -207 -240 -464 -229
-778 5 -157 20 -246 63 -373 92 -274 301 -496 568 -602 410 -164 939 -122
1267 101 289 195 442 515 442 924 0 589 -315 984 -872 1096 -130 26 -383 33
-515 14z m459 -310 c91 -25 214 -89 283 -148 211 -177 308 -486 257 -817 -41
-274 -187 -482 -410 -586 -127 -59 -181 -69 -375 -69 -201 0 -252 10 -390 78
-68 33 -102 58 -170 127 -47 47 -100 111 -119 142 -41 71 -86 201 -100 288
-16 97 -13 296 5 390 60 320 273 540 584 606 89 18 353 12 435 -11z"/>
<path d="M63555 4654 c-392 -40 -640 -172 -765 -405 -33 -63 -70 -192 -70
-246 l0 -33 177 2 177 3 8 43 c10 63 64 156 120 207 53 50 159 105 253 131 92
25 359 31 466 10 105 -21 232 -81 292 -139 96 -94 129 -192 125 -369 l-3 -113
-400 -31 c-220 -18 -443 -37 -495 -44 -591 -73 -870 -299 -847 -685 18 -292
200 -479 537 -551 121 -26 419 -26 545 0 293 61 511 196 648 401 l47 70 0
-223 0 -222 175 0 176 0 -3 778 -3 777 -28 90 c-43 136 -80 199 -177 296 -122
122 -253 186 -470 230 -93 19 -390 33 -485 23z m783 -1281 c-5 -103 -11 -144
-33 -208 -91 -272 -313 -432 -659 -475 -116 -15 -283 -8 -371 15 -136 36 -225
97 -273 189 -24 45 -27 62 -27 146 0 87 3 100 30 149 34 62 83 106 164 150 56
29 198 72 289 86 58 9 775 72 836 74 l49 1 -5 -127z"/>
<path d="M70080 4654 c-402 -48 -671 -196 -848 -467 -239 -365 -224 -1007 30
-1352 154 -209 370 -335 680 -397 148 -29 461 -32 604 -5 351 65 605 237 729
493 19 39 35 76 35 81 0 14 -50 21 -215 28 l-140 7 -45 -68 c-56 -84 -139
-153 -245 -204 -124 -60 -179 -71 -365 -77 -140 -4 -180 -2 -265 16 -170 35
-322 123 -423 244 -82 100 -149 264 -166 410 l-7 57 957 0 957 0 -6 148 c-6
171 -25 284 -68 420 -52 163 -108 260 -213 371 -138 144 -305 229 -547 276
-81 16 -363 28 -439 19z m348 -290 c44 -9 118 -35 172 -61 79 -38 108 -59 175
-127 48 -48 94 -105 112 -141 38 -72 78 -206 87 -292 l7 -63 -769 0 -769 0 9
58 c50 331 263 562 578 627 92 19 304 18 398 -1z"/>
<path d="M50810 3535 l0 -1075 1680 0 1680 0 0 1075 0 1075 -190 0 -190 0 0
-920 0 -920 -555 0 -555 0 0 920 0 920 -190 0 -190 0 0 -920 0 -920 -555 0
-555 0 0 920 0 920 -190 0 -190 0 0 -1075z"/>
<path d="M54840 3535 l0 -1075 190 0 190 0 0 470 0 470 198 0 197 0 465 -471
465 -470 248 3 248 3 -576 553 c-316 304 -575 557 -575 562 0 4 246 237 547
516 l547 509 -235 3 -234 3 -451 -455 -451 -456 -196 0 -197 0 0 455 0 455
-190 0 -190 0 0 -1075z"/>
<path d="M60316 4538 c-3 -40 -11 -170 -16 -288 -49 -1002 -99 -1310 -237
-1442 -51 -49 -79 -58 -179 -58 l-84 0 0 -149 c0 -123 3 -150 15 -155 37 -14
224 -18 293 -6 89 15 193 65 244 117 120 124 191 354 232 758 8 77 27 330 42
563 l28 422 508 0 508 0 0 -920 0 -920 190 0 190 0 0 1075 0 1075 -864 0 -864
0 -6 -72z"/>
<path d="M66400 3535 l0 -1075 190 0 190 0 0 470 0 470 675 0 675 0 0 -470 0
-470 190 0 190 0 0 1075 0 1075 -190 0 -190 0 0 -450 0 -450 -675 0 -675 0 0
450 0 450 -190 0 -190 0 0 -1075z"/>
<path d="M75070 4455 l0 -155 425 0 425 0 0 -920 0 -920 195 0 195 0 0 920 0
920 425 0 425 0 0 155 0 155 -1045 0 -1045 0 0 -155z"/>
<path d="M77610 3535 l0 -1075 283 0 284 0 614 935 614 934 3 -934 2 -935 185
0 185 0 0 1075 0 1075 -282 -2 -283 -3 -615 -936 -615 -936 -3 939 -2 938
-185 0 -185 0 0 -1075z"/>
<path d="M360 3131 c0 -17 128 -286 195 -411 389 -721 954 -1333 1665 -1806
759 -503 1578 -791 2540 -891 231 -24 827 -24 1060 0 720 75 1326 246 1945
552 538 265 982 582 1395 995 180 179 283 296 255 288 -11 -3 -74 -22 -140
-41 -385 -112 -869 -191 -1325 -217 -528 -29 -989 8 -1577 125 -796 160 -1778
417 -2932 770 -382 116 -477 144 -671 193 -637 163 -1434 313 -2372 447 -21 3
-38 1 -38 -4z"/>
</g>
</svg>
